<svg width="22" height="22" viewBox="0 0 22 22" fill="none" xmlns="http://www.w3.org/2000/svg">
<path fill-rule="evenodd" clip-rule="evenodd" d="M0 2.74998C0 2.24372 0.410406 1.83331 0.916667 1.83331H14.6667C15.1729 1.83331 15.5833 2.24372 15.5833 2.74998V6.41665H18.3333C18.5764 6.41665 18.8096 6.51322 18.9815 6.68513L21.7315 9.43513C21.9034 9.60704 22 9.8402 22 10.0833V14.6666C22 15.1729 21.5896 15.5833 21.0833 15.5833H19.8579C20.0559 16.0001 20.1667 16.4662 20.1667 16.9583C20.1667 18.7302 18.7302 20.1666 16.9583 20.1666C15.1864 20.1666 13.75 18.7302 13.75 16.9583C13.75 16.4662 13.8608 16.0001 14.0587 15.5833H7.94125C8.13923 16.0001 8.25 16.4662 8.25 16.9583C8.25 18.7302 6.81358 20.1666 5.04167 20.1666C3.26975 20.1666 1.83333 18.7302 1.83333 16.9583C1.83333 16.4662 1.94411 16.0001 2.14208 15.5833H0.916667C0.410406 15.5833 0 15.1729 0 14.6666V2.74998ZM13.75 13.75V3.66665H1.83333V13.75H13.75ZM15.5833 13.75V8.24998H17.9536L20.1667 10.463V13.75H15.5833ZM5.04167 15.5833C4.28228 15.5833 3.66667 16.1989 3.66667 16.9583C3.66667 17.7177 4.28228 18.3333 5.04167 18.3333C5.80106 18.3333 6.41667 17.7177 6.41667 16.9583C6.41667 16.1989 5.80106 15.5833 5.04167 15.5833ZM16.9583 15.5833C16.1989 15.5833 15.5833 16.1989 15.5833 16.9583C15.5833 17.7177 16.1989 18.3333 16.9583 18.3333C17.7177 18.3333 18.3333 17.7177 18.3333 16.9583C18.3333 16.1989 17.7177 15.5833 16.9583 15.5833Z" fill="white"/>
</svg>
